<?xml version="1.0" encoding="UTF-8"?>
<!-- This file is generated by npm run build:icons -->
<svg xmlns="http://www.w3.org/2000/svg" xmlns:xlink="http://www.w3.org/1999/xlink" width="0" height="0">
<defs>
<symbol viewBox="0 0 19 19" fill="currentColor" id="instagram">
<path d="M9.95339 4.82031C8.72178 4.82031 7.54061 5.3069 6.66973 6.17304C5.79884 7.03918 5.30959 8.21391 5.30959 9.43881C5.30959 10.6637 5.79884 11.8384 6.66973 12.7046C7.54061 13.5707 8.72178 14.0573 9.95339 14.0573C11.185 14.0573 12.3662 13.5707 13.2371 12.7046C14.1079 11.8384 14.5972 10.6637 14.5972 9.43881C14.5972 8.21391 14.1079 7.03918 13.2371 6.17304C12.3662 5.3069 11.185 4.82031 9.95339 4.82031ZM9.95339 12.4373C9.15392 12.4373 8.38718 12.1215 7.82187 11.5592C7.25656 10.997 6.93897 10.2344 6.93897 9.43931C6.93897 8.64419 7.25656 7.88164 7.82187 7.31941C8.38718 6.75717 9.15392 6.44131 9.95339 6.44131C10.7529 6.44131 11.5196 6.75717 12.0849 7.31941C12.6502 7.88164 12.9678 8.64419 12.9678 9.43931C12.9678 10.2344 12.6502 10.997 12.0849 11.5592C11.5196 12.1215 10.7529 12.4373 9.95339 12.4373Z"></path>
<path d="M13.6818 0.499131C12.0167 0.422131 7.89222 0.426131 6.22614 0.499131C4.76116 0.567131 3.47012 0.919131 2.42845 1.95513C0.687963 3.68513 0.910174 6.01813 0.910174 9.43913C0.910174 12.9401 0.714105 15.2191 2.42845 16.9231C4.17597 18.6601 6.55493 18.4331 9.95345 18.4331C13.4404 18.4331 14.644 18.4351 15.8767 17.9601C17.5539 17.3131 18.8188 15.8231 18.9434 13.1461C19.0209 11.4891 19.0168 7.38913 18.9434 5.73113C18.7926 2.57113 17.0883 0.655131 13.6818 0.499131ZM16.3171 15.7781C15.1769 16.9131 13.5933 16.8111 9.93233 16.8111C6.16179 16.8111 4.64955 16.8671 3.54553 15.7671C2.27561 14.5091 2.50486 12.4891 2.50486 9.42713C2.50486 5.28313 2.07753 2.29913 6.25932 2.08613C7.21955 2.05213 7.5031 2.04113 9.92127 2.04113L9.95546 2.06413C13.9734 2.06413 17.1265 1.64513 17.3156 5.80313C17.3588 6.75213 17.3689 7.03713 17.3689 9.43813C17.3689 13.1451 17.4392 14.6581 16.3171 15.7781Z"></path>
<path d="M14.7807 5.71809C14.926 5.72249 15.0707 5.69783 15.2063 5.64556C15.3418 5.59328 15.4655 5.51448 15.5698 5.4138C15.6742 5.31312 15.7571 5.19263 15.8138 5.05947C15.8705 4.92631 15.8996 4.78319 15.8996 4.63859C15.8996 4.494 15.8705 4.35088 15.8138 4.21772C15.7571 4.08455 15.6742 3.96406 15.5698 3.86339C15.4655 3.76271 15.3418 3.6839 15.2063 3.63163C15.0707 3.57936 14.926 3.55469 14.7807 3.55909C14.4985 3.56764 14.2308 3.68511 14.0343 3.88663C13.8377 4.08814 13.7278 4.35785 13.7278 4.63859C13.7278 4.91934 13.8377 5.18905 14.0343 5.39056C14.2308 5.59208 14.4985 5.70955 14.7807 5.71809Z"></path>
</symbol>
<symbol aria-hidden="true" role="img" class="iconify iconify--logos" preserveAspectRatio="xMidYMid meet" viewBox="0 0 256 228" id="react" fill="currentColor"><path d="M210.483 73.824a171.49 171.49 0 0 0-8.24-2.597c.465-1.9.893-3.777 1.273-5.621c6.238-30.281 2.16-54.676-11.769-62.708c-13.355-7.7-35.196.329-57.254 19.526a171.23 171.23 0 0 0-6.375 5.848a155.866 155.866 0 0 0-4.241-3.917C100.759 3.829 77.587-4.822 63.673 3.233C50.33 10.957 46.379 33.89 51.995 62.588a170.974 170.974 0 0 0 1.892 8.48c-3.28.932-6.445 1.924-9.474 2.98C17.309 83.498 0 98.307 0 113.668c0 15.865 18.582 31.778 46.812 41.427a145.52 145.52 0 0 0 6.921 2.165a167.467 167.467 0 0 0-2.01 9.138c-5.354 28.2-1.173 50.591 12.134 58.266c13.744 7.926 36.812-.22 59.273-19.855a145.567 145.567 0 0 0 5.342-4.923a168.064 168.064 0 0 0 6.92 6.314c21.758 18.722 43.246 26.282 56.54 18.586c13.731-7.949 18.194-32.003 12.4-61.268a145.016 145.016 0 0 0-1.535-6.842c1.62-.48 3.21-.974 4.76-1.488c29.348-9.723 48.443-25.443 48.443-41.52c0-15.417-17.868-30.326-45.517-39.844Zm-6.365 70.984c-1.4.463-2.836.91-4.3 1.345c-3.24-10.257-7.612-21.163-12.963-32.432c5.106-11 9.31-21.767 12.459-31.957c2.619.758 5.16 1.557 7.61 2.4c23.69 8.156 38.14 20.213 38.14 29.504c0 9.896-15.606 22.743-40.946 31.14Zm-10.514 20.834c2.562 12.94 2.927 24.64 1.23 33.787c-1.524 8.219-4.59 13.698-8.382 15.893c-8.067 4.67-25.32-1.4-43.927-17.412a156.726 156.726 0 0 1-6.437-5.87c7.214-7.889 14.423-17.06 21.459-27.246c12.376-1.098 24.068-2.894 34.671-5.345a134.17 134.17 0 0 1 1.386 6.193ZM87.276 214.515c-7.882 2.783-14.16 2.863-17.955.675c-8.075-4.657-11.432-22.636-6.853-46.752a156.923 156.923 0 0 1 1.869-8.499c10.486 2.32 22.093 3.988 34.498 4.994c7.084 9.967 14.501 19.128 21.976 27.15a134.668 134.668 0 0 1-4.877 4.492c-9.933 8.682-19.886 14.842-28.658 17.94ZM50.35 144.747c-12.483-4.267-22.792-9.812-29.858-15.863c-6.35-5.437-9.555-10.836-9.555-15.216c0-9.322 13.897-21.212 37.076-29.293c2.813-.98 5.757-1.905 8.812-2.773c3.204 10.42 7.406 21.315 12.477 32.332c-5.137 11.18-9.399 22.249-12.634 32.792a134.718 134.718 0 0 1-6.318-1.979Zm12.378-84.26c-4.811-24.587-1.616-43.134 6.425-47.789c8.564-4.958 27.502 2.111 47.463 19.835a144.318 144.318 0 0 1 3.841 3.545c-7.438 7.987-14.787 17.08-21.808 26.988c-12.04 1.116-23.565 2.908-34.161 5.309a160.342 160.342 0 0 1-1.76-7.887Zm110.427 27.268a347.8 347.8 0 0 0-7.785-12.803c8.168 1.033 15.994 2.404 23.343 4.08c-2.206 7.072-4.956 14.465-8.193 22.045a381.151 381.151 0 0 0-7.365-13.322Zm-45.032-43.861c5.044 5.465 10.096 11.566 15.065 18.186a322.04 322.04 0 0 0-30.257-.006c4.974-6.559 10.069-12.652 15.192-18.18ZM82.802 87.83a323.167 323.167 0 0 0-7.227 13.238c-3.184-7.553-5.909-14.98-8.134-22.152c7.304-1.634 15.093-2.97 23.209-3.984a321.524 321.524 0 0 0-7.848 12.897Zm8.081 65.352c-8.385-.936-16.291-2.203-23.593-3.793c2.26-7.3 5.045-14.885 8.298-22.6a321.187 321.187 0 0 0 7.257 13.246c2.594 4.48 5.28 8.868 8.038 13.147Zm37.542 31.03c-5.184-5.592-10.354-11.779-15.403-18.433c4.902.192 9.899.29 14.978.29c5.218 0 10.376-.117 15.453-.343c-4.985 6.774-10.018 12.97-15.028 18.486Zm52.198-57.817c3.422 7.8 6.306 15.345 8.596 22.52c-7.422 1.694-15.436 3.058-23.88 4.071a382.417 382.417 0 0 0 7.859-13.026a347.403 347.403 0 0 0 7.425-13.565Zm-16.898 8.101a358.557 358.557 0 0 1-12.281 19.815a329.4 329.4 0 0 1-23.444.823c-7.967 0-15.716-.248-23.178-.732a310.202 310.202 0 0 1-12.513-19.846h.001a307.41 307.41 0 0 1-10.923-20.627a310.278 310.278 0 0 1 10.89-20.637l-.001.001a307.318 307.318 0 0 1 12.413-19.761c7.613-.576 15.42-.876 23.31-.876H128c7.926 0 15.743.303 23.354.883a329.357 329.357 0 0 1 12.335 19.695a358.489 358.489 0 0 1 11.036 20.54a329.472 329.472 0 0 1-11 20.722Zm22.56-122.124c8.572 4.944 11.906 24.881 6.52 51.026c-.344 1.668-.73 3.367-1.15 5.09c-10.622-2.452-22.155-4.275-34.23-5.408c-7.034-10.017-14.323-19.124-21.64-27.008a160.789 160.789 0 0 1 5.888-5.4c18.9-16.447 36.564-22.941 44.612-18.3ZM128 90.808c12.625 0 22.86 10.235 22.86 22.86s-10.235 22.86-22.86 22.86s-22.86-10.235-22.86-22.86s10.235-22.86 22.86-22.86Z"></path></symbol>
<symbol viewBox="62.370000000000005 70.49 675.3000000000001 675.3000000000001" fill="currentColor" id="tik-tok"><g id="SVGRepo_bgCarrier" stroke-width="0"></g><g id="SVGRepo_tracerCarrier" stroke-linecap="round" stroke-linejoin="round"></g><g id="SVGRepo_iconCarrier"> <g fill="#ee1d52"> <path d="M196 498.32l1.64 4.63c-.21-.53-.81-2.15-1.64-4.63zM260.9 393.39c2.88-24.88 12.66-38.81 31.09-53.09 26.37-19.34 59.31-8.4 59.31-8.4V267a135.84 135.84 0 0 1 23.94 1.48V352s-32.93-10.94-59.3 8.41c-18.42 14.27-28.22 28.21-31.09 53.09-.09 13.51 2.34 31.17 13.53 46.44q-4.15-2.22-8.46-5.06c-24.65-17.27-29.14-43.18-29.02-61.49zM511.25 147c-18.14-20.74-25-41.68-27.48-56.39h22.82s-4.55 38.57 28.61 76.5l.46.51A132.76 132.76 0 0 1 511.25 147zM621.18 205.8v81.84s-29.12-1.19-50.67-6.91c-30.09-8-49.43-20.27-49.43-20.27s-13.36-8.75-14.44-9.36v169c0 9.41-2.47 32.91-10 52.51-9.83 25.64-25 42.47-27.79 45.91 0 0-18.45 22.75-51 38.07-29.34 13.82-55.1 13.47-62.8 13.82 0 0-44.53 1.84-84.6-25.33a169.63 169.63 0 0 1-24.16-20.26l.2.15c40.08 27.17 84.6 25.33 84.6 25.33 7.71-.35 33.47 0 62.8-13.82 32.52-15.32 51-38.07 51-38.07 2.76-3.44 18-20.27 27.79-45.92 7.51-19.59 10-43.1 10-52.51V231c1.08.62 14.43 9.37 14.43 9.37s19.35 12.28 49.44 20.27c21.56 5.72 50.67 6.91 50.67 6.91v-64.13c9.96 2.33 18.45 2.96 23.96 2.38z"></path> </g> <path d="M597.23 203.42v64.11s-29.11-1.19-50.67-6.91c-30.09-8-49.44-20.27-49.44-20.27s-13.35-8.75-14.43-9.37V400c0 9.41-2.47 32.92-10 52.51-9.83 25.65-25 42.48-27.79 45.92 0 0-18.46 22.75-51 38.07-29.33 13.82-55.09 13.47-62.8 13.82 0 0-44.52 1.84-84.6-25.33l-.2-.15a157.5 157.5 0 0 1-11.93-13.52c-12.79-16.27-20.63-35.51-22.6-41a.24.24 0 0 1 0-.07c-3.17-9.54-9.83-32.45-8.92-54.64 1.61-39.15 14.81-63.18 18.3-69.2A162.84 162.84 0 0 1 256.68 303a148.37 148.37 0 0 1 42.22-25 141.61 141.61 0 0 1 52.4-11v64.9s-32.94-10.9-59.3 8.4c-18.43 14.28-28.21 28.21-31.09 53.09-.12 18.31 4.37 44.22 29 61.5q4.31 2.85 8.46 5.06a65.85 65.85 0 0 0 15.5 15.05c24.06 15.89 44.22 17 70 6.68C401.06 474.78 414 459.23 420 442c3.77-10.76 3.72-21.59 3.72-32.79V90.61h60c2.48 14.71 9.34 35.65 27.48 56.39a132.76 132.76 0 0 0 24.41 20.62c2.64 2.85 16.14 16.94 33.47 25.59a130.62 130.62 0 0 0 28.15 10.21z"></path> <path d="M187.89 450.39v.05l1.48 4.21c-.17-.49-.72-1.98-1.48-4.26z"></path> <path d="M298.9 278a148.37 148.37 0 0 0-42.22 25 162.84 162.84 0 0 0-35.52 43.5c-3.49 6-16.69 30.05-18.3 69.2-.91 22.19 5.75 45.1 8.92 54.64a.24.24 0 0 0 0 .07c2 5.44 9.81 24.68 22.6 41a157.5 157.5 0 0 0 11.93 13.52 166.64 166.64 0 0 1-35.88-33.64c-12.68-16.13-20.5-35.17-22.54-40.79a1 1 0 0 1 0-.12v-.07c-3.18-9.53-9.86-32.45-8.93-54.67 1.61-39.15 14.81-63.18 18.3-69.2a162.68 162.68 0 0 1 35.52-43.5 148.13 148.13 0 0 1 42.22-25 144.63 144.63 0 0 1 29.78-8.75 148 148 0 0 1 46.57-.69V267a141.61 141.61 0 0 0-52.45 11z"></path> <path d="M483.77 90.61h-60v318.61c0 11.2 0 22-3.72 32.79-6.06 17.22-18.95 32.77-36.13 39.67-25.79 10.36-45.95 9.21-70-6.68a65.85 65.85 0 0 1-15.54-15c20.49 10.93 38.83 10.74 61.55 1.62 17.17-6.9 30.08-22.45 36.12-39.68 3.78-10.76 3.73-21.59 3.73-32.78V70.49h82.85s-.93 7.92 1.14 20.12zM597.23 185.69v17.73a130.62 130.62 0 0 1-28.1-10.21c-17.33-8.65-30.83-22.74-33.47-25.59a93.69 93.69 0 0 0 9.52 5.48c21.07 10.52 41.82 13.66 52.05 12.59z"></path> <path d="M486.85 701.51a22.75 22.75 0 0 1-1-6.73v-.16a24.53 24.53 0 0 0 1 6.89zM536.44 694.62v.16a23.07 23.07 0 0 1-1 6.73 24.89 24.89 0 0 0 1-6.89z"></path> <path d="M485.84 694.78a22.75 22.75 0 0 0 1 6.73 2.59 2.59 0 0 0 .14.45 25.28 25.28 0 0 0 24.16 17.8v25.59c-12.46 0-21.38.44-35-7.59-15.44-9.16-24.14-25.91-24.14-43.3 0-17.94 9.74-35.91 26.25-44.57 12-6.28 21.09-6.32 32.92-6.32v25.58a25.31 25.31 0 0 0-25.31 25.31z"></path> <path d="M536.64 694.78a23.07 23.07 0 0 1-1 6.73c0 .15-.09.3-.14.45a25.3 25.3 0 0 1-24.16 17.8v25.59c12.45 0 21.38.44 34.95-7.59 15.49-9.16 24.21-25.91 24.21-43.3 0-17.94-9.74-35.91-26.25-44.57-12-6.28-21.09-6.32-32.91-6.32v25.58a25.31 25.31 0 0 1 25.3 25.31z"></path> <path d="M119.51 620.36h93.71l-8.66 25.78H180v98.67h-30.13v-98.67h-30.36zm248.35 0v25.78h30.36v98.67h30.17v-98.67h24.52l8.66-25.78zm-134.25 29.38A14.6 14.6 0 1 0 219 635.15a14.59 14.59 0 0 0 14.61 14.59zM219 744.81h29.58v-84.75H219zM355 649h-34.6l-29.82 29.82v-58.36h-29.39l-.09 124.35h29.67v-32.4L300 704l28.8 40.77h31.72l-41.72-59.62zm283.77 36.17L674.94 649h-34.59l-29.83 29.82v-58.36h-29.38L581 744.81h29.68v-32.4L620 704l28.8 40.77h31.73zm-76.06 9.27c0 28.1-23.09 50.89-51.57 50.89s-51.57-22.79-51.57-50.89 23.09-50.89 51.57-50.89 51.57 22.8 51.57 50.91zm-26.27 0a25.3 25.3 0 1 0-25.3 25.3 25.3 25.3 0 0 0 25.3-25.28z"></path> </g></symbol>
</defs>
</svg>
